<svg width="60" height="60" viewBox="0 0 60 60" fill="none" xmlns="http://www.w3.org/2000/svg">
<path fill-rule="evenodd" clip-rule="evenodd" d="M3.75 8.75C3.75 5.98857 5.98857 3.75 8.75 3.75H32.5C33.1904 3.75 33.75 4.30964 33.75 5V7.5C33.75 8.19035 33.1904 8.75 32.5 8.75H8.75V51.25H51.25V34.2346L38.0521 41.5161C36.5359 42.3526 34.6948 42.3451 33.1855 41.4961L25.5888 37.223L17.2745 41.6246C16.6644 41.9476 15.9079 41.7149 15.5849 41.1048L14.4151 38.8952C14.0921 38.2851 14.3249 37.5286 14.935 37.2056L23.2492 32.804C24.7526 32.0081 26.5575 32.0311 28.04 32.8651L35.6367 37.1382L48.8346 29.8566C52.167 28.0181 56.25 30.4286 56.25 34.2346V51.25C56.25 54.0114 54.0114 56.25 51.25 56.25H8.75C5.98857 56.25 3.75 54.0114 3.75 51.25V8.75ZM43.3265 9.81506C42.8759 11.4984 41.5622 12.814 39.8796 13.2671L37.5642 13.8907C35.8119 14.3627 35.8119 16.8489 37.5642 17.3209L39.8645 17.9404C41.5446 18.3929 42.857 19.7052 43.3095 21.3854L43.929 23.6858C44.401 25.4381 46.8873 25.4381 47.3593 23.6858L47.9829 21.3704C48.436 19.6877 49.7516 18.3741 51.4349 17.9235L53.6831 17.3216C55.439 16.8515 55.439 14.3601 53.6831 13.89L51.4199 13.2841C49.734 12.8328 48.4171 11.516 47.9659 9.83012L47.3599 7.56686C46.8899 5.81105 44.3984 5.81105 43.9284 7.56686L43.3265 9.81506ZM21.875 26.25C24.2913 26.25 26.25 24.2913 26.25 21.875C26.25 19.4587 24.2913 17.5 21.875 17.5C19.4587 17.5 17.5 19.4587 17.5 21.875C17.5 24.2913 19.4587 26.25 21.875 26.25Z" fill="#C0C0C0"/>
</svg>
