<svg width="71" height="71" viewBox="0 0 71 71" fill="none" xmlns="http://www.w3.org/2000/svg">
<rect width="71" height="71" rx="16" fill="#FF7E96"/>
<path d="M39.1429 16.9444V20.5H26.5714C24.1899 20.5 21.9059 21.4365 20.2219 23.1035C18.5379 24.7705 17.5918 27.0314 17.5918 29.3889V40.0556C17.5918 41.2229 17.8241 42.3787 18.2754 43.4572C18.7266 44.5356 19.3881 45.5155 20.2219 46.341C21.9059 48.0079 24.1899 48.9444 26.5714 48.9444H44.5306C45.7098 48.9444 46.8775 48.7145 47.967 48.2678C49.0564 47.8211 50.0463 47.1664 50.8801 46.341C51.714 45.5155 52.3754 44.5356 52.8267 43.4572C53.2779 42.3787 53.5102 41.2229 53.5102 40.0556V29.3889H57.102V40.0556C57.102 43.356 55.7776 46.5213 53.42 48.8551C51.0624 51.1889 47.8648 52.5 44.5306 52.5H26.5714C23.2373 52.5 20.0397 51.1889 17.6821 48.8551C15.3245 46.5213 14 43.356 14 40.0556V29.3889C14 26.0884 15.3245 22.9231 17.6821 20.5893C20.0397 18.2556 23.2373 16.9444 26.5714 16.9444H39.1429ZM43.2591 29.0191L45.8021 31.5364L45.6046 31.7284L43.4064 33.9044L42.6988 34.6049L42.5802 34.7222L45.8021 37.908L43.2591 40.4253L38.7693 35.9809C38.6021 35.8158 38.4694 35.6196 38.3788 35.4036C38.2883 35.1876 38.2417 34.9561 38.2417 34.7222C38.2417 34.4884 38.2883 34.2568 38.3788 34.0409C38.4694 33.8249 38.6021 33.6287 38.7693 33.4636L39.7391 32.5036L40.8669 31.3907L42.0522 30.2138L42.2678 30.0076L43.0651 29.2147L43.2591 29.0191ZM31.0612 29.3889V40.0556H26.5714V29.3889H31.0612ZM50.7876 13.1649C51.2438 14.8964 52.0124 16.2867 53.0936 17.3604C54.1711 18.4271 55.5791 19.188 57.3319 19.6396C58.2227 19.8707 58.2227 21.1293 57.3319 21.3604C55.5791 21.812 54.1711 22.5729 53.0936 23.6431C52.016 24.7098 51.2438 26.1036 50.7876 27.8387C50.5541 28.7204 49.2826 28.7204 49.0491 27.8387C48.593 26.1036 47.8243 24.7098 46.7432 23.6431C45.6656 22.5764 44.2576 21.812 42.5048 21.3604C41.614 21.1293 41.614 19.8707 42.5048 19.6396C44.2576 19.188 45.6656 18.4271 46.7432 17.3569C47.8207 16.2902 48.593 14.8964 49.0491 13.1613C49.2826 12.2796 50.5541 12.2796 50.7876 13.1613V13.1649Z" fill="white"/>
</svg>
