<svg width="128" height="125" viewBox="0 0 128 125" fill="none" xmlns="http://www.w3.org/2000/svg">
<path d="M88.6093 117.311L88.3572 109.149C86.1105 108.383 83.9662 107.344 81.9725 106.056C79.3977 104.407 78.3606 101.603 79.3841 99.07C79.7884 98.1024 81.3442 94.2694 82.8516 90.591C84.3096 87.0382 89.7665 85.8552 93.1116 88.3716L94.3889 89.3362C94.6947 89.556 94.9648 89.7761 95.2352 89.9929C95.454 90.1666 95.7396 90.3944 95.8959 90.5013C95.8661 89.9688 95.7897 89.44 95.6676 88.9208C94.5808 84.1394 92.8475 79.3788 91.1722 74.7785C89.8716 71.2072 88.5113 67.5726 87.2026 64.0589C85.9543 60.7155 84.6597 57.2646 83.4108 53.8498C81.8684 49.7127 80.6031 45.4776 79.6232 41.1724C78.7673 37.3172 78.7785 34.0622 79.6599 30.9377C80.7618 27.0313 83.26 23.905 86.9649 21.7375C86.9443 20.9712 86.8143 16.8394 86.7062 13.3412C86.6174 10.5087 89.3618 8.12532 92.8372 8.01863L104.157 7.66264C107.617 7.55783 110.499 9.74755 110.605 12.5717C110.725 15.776 110.862 19.4257 110.891 20.0923C111.644 20.3556 113.688 21.5264 115.623 22.6785C118.028 24.1093 118.85 26.737 117.564 28.9596L113.034 36.8482C111.52 39.4763 107.671 40.6145 104.508 39.3346L103.709 39.0156C105.083 44.3133 107.032 49.4774 109.093 54.9326C109.446 55.8927 109.808 56.8537 110.179 57.8154C110.746 59.3377 111.316 60.858 111.89 62.3765C113.833 67.5368 115.839 72.8708 117.706 78.1738C118.79 81.3254 119.658 84.5474 120.304 87.8173C121.224 91.9861 120.73 96.3428 118.9 100.2C117.433 103.207 115.1 105.707 112.2 107.377C112.243 108.3 112.412 112.827 112.55 116.548C112.638 119.387 109.905 121.788 106.42 121.897L95.0514 122.249C91.5827 122.353 88.6981 120.144 88.6093 117.311Z" fill="black" stroke="black" stroke-width="0.745297" stroke-miterlimit="10"/>
<path d="M87.2121 115.904L86.96 107.741C84.7133 106.976 82.569 105.937 80.5753 104.649C78.0005 103 76.9634 100.195 77.9869 97.6626C78.3912 96.6951 79.947 92.862 81.4543 89.1837C82.9124 85.6308 88.3693 84.4478 91.7144 86.9643L92.9917 87.9289C93.2974 88.1486 93.5676 88.3687 93.8379 88.5855C94.0568 88.7592 94.3424 88.987 94.4987 89.094C94.4689 88.5615 94.3925 88.0326 94.2704 87.5134C93.1836 82.732 91.4503 77.9714 89.775 73.3711C88.4743 69.7998 87.1141 66.1652 85.8054 62.6516C84.5571 59.3082 83.2625 55.8572 82.0136 52.4425C80.4712 48.3054 79.2058 44.0702 78.226 39.765C77.3701 35.9099 77.3812 32.6548 78.2627 29.5304C79.3646 25.624 81.8628 22.4977 85.5677 20.3301C85.5471 19.5638 85.4171 15.432 85.309 11.9338C85.2202 9.10136 87.9646 6.71797 91.44 6.61128L102.76 6.25529C106.219 6.15048 109.102 8.3402 109.208 11.1643C109.327 14.3687 109.465 18.0184 109.494 18.6849C110.246 18.9483 112.291 20.1191 114.226 21.2712C116.631 22.702 117.453 25.3296 116.167 27.5523L111.637 35.4408C110.123 38.0689 106.274 39.2072 103.111 37.9273L102.311 37.6082C103.686 42.906 105.635 48.07 107.696 53.5252C108.048 54.4854 108.41 55.4463 108.782 56.4081C109.349 57.9303 109.919 59.4507 110.493 60.9692C112.436 66.1295 114.442 71.4635 116.309 76.7665C117.393 79.9181 118.261 83.1401 118.906 86.4099C119.827 90.5788 119.333 94.9354 117.502 98.7924C116.036 101.8 113.703 104.3 110.803 105.969C110.846 106.893 111.015 111.42 111.153 115.141C111.241 117.98 108.508 120.381 105.023 120.49L93.6542 120.842C90.1855 120.946 87.3009 118.736 87.2121 115.904Z" fill="#FF90E8" stroke="black" stroke-width="0.745297" stroke-miterlimit="10"/>
<path d="M87.9264 92.4004C88.6948 92.9793 89.3342 93.5508 90.0805 94.0048C92.2836 95.364 94.9212 95.8343 97.4583 95.3204C99.7126 94.8985 100.984 93.6693 101.534 91.8844C102.109 90.0369 101.984 88.1863 101.564 86.3404C100.425 81.3279 98.6622 76.4515 96.8895 71.5807C94.3434 64.5917 91.6683 57.6341 89.1155 50.6477C87.6535 46.7199 86.4516 42.7002 85.5174 38.6145C84.9393 36.0168 84.7504 33.4158 85.4816 30.8134C86.3531 27.7302 88.5169 25.4704 92.1161 24.1849C93.2979 23.7647 93.1005 24.0367 93.06 23.003C92.97 19.7558 92.862 16.4909 92.7599 13.2329L92.7423 12.6256L101.779 12.3456C101.785 12.5438 101.788 12.7384 101.795 12.9301C101.948 16.2701 102.105 19.6072 102.243 22.9458C102.255 23.2708 102.41 23.3517 102.775 23.4047C105.551 23.7972 107.416 24.438 109.146 25.573C107.895 27.7597 106.637 29.9555 105.414 32.0861C104.363 31.6749 103.38 31.1786 102.321 30.8574C100.821 30.4148 99.2254 30.4059 97.7198 30.8317C95.9321 31.3312 95.0471 32.4305 94.6925 33.8914C94.2841 35.5713 94.6089 37.202 95.0277 38.8307C96.7253 45.4253 99.2787 51.8188 101.684 58.2453C104.208 64.9928 106.791 71.7289 109.179 78.5105C110.186 81.4344 110.991 84.4239 111.589 87.4579C112.223 90.5462 112.014 93.6488 110.59 96.6375C109.345 99.2588 107.115 101.115 103.969 102.243C103.398 102.449 103.201 102.678 103.241 103.203C103.427 106.624 103.565 110.034 103.714 113.471C103.726 113.796 103.733 114.101 103.743 114.445L94.6062 114.726L94.2652 103.226C93.0325 102.932 91.8368 102.7 90.6857 102.362C88.7487 101.79 86.9051 100.939 85.2127 99.8372C85.1543 99.7963 85.1081 99.7402 85.0792 99.675C85.0504 99.6098 85.0399 99.5379 85.049 99.4672C85.975 97.1337 86.9393 94.8066 87.9264 92.4004Z" fill="#FF90E8" stroke="black" stroke-width="0.745297" stroke-miterlimit="10"/>
<path d="M79.9921 25.347C74.6818 23.9237 69.9058 26.1708 66.2683 29.6765C63.5724 32.2747 61.1487 35.8503 58.9769 40.152L57.2929 39.7007C55.4375 39.2034 53.5303 40.3043 53.033 42.1597L48.7487 58.1437C48.2599 59.9671 49.3419 61.8414 51.1653 62.3302C48.6252 72.3794 47.3379 81.3639 47.7465 88.4395C48.1608 95.6151 50.6057 103.545 58.4674 105.652C62.1983 106.652 65.7221 105.733 68.6474 103.688C71.3969 101.765 73.6425 98.8571 75.5271 95.5682C79.3087 88.969 82.5261 79.2394 85.2378 67.2724L85.655 65.4314C86.0678 63.6095 84.9678 61.7869 83.1634 61.3032L80.1178 60.4869L81.2132 56.4003L83.0572 56.8946C84.8505 57.3752 86.7051 56.3627 87.2705 54.5943L87.8405 52.8116C88.507 50.7271 89.711 46.3013 89.9466 41.9732L89.9477 41.9534L89.9486 41.9335C90.0972 38.7796 89.758 35.3255 88.2956 32.2681C86.7354 29.0063 83.9788 26.4156 79.9921 25.347Z" fill="black" stroke="black" stroke-width="0.745297" stroke-miterlimit="10"/>
<path d="M78.5948 23.9396C73.2846 22.5163 68.5086 24.7635 64.8711 28.2691C62.1752 30.8673 59.7515 34.4429 57.5797 38.7447L55.8957 38.2933C54.0403 37.796 52.1331 38.8969 51.6357 40.7523L47.3515 56.7363C46.8627 58.5597 47.9447 60.4341 49.7681 60.9228C47.2279 70.9721 45.9407 79.9565 46.3493 87.0321C46.7636 94.2077 49.2085 102.138 57.0702 104.245C60.8011 105.245 64.3249 104.326 67.2502 102.28C69.9997 100.358 72.2453 97.4497 74.1299 94.1608C77.9114 87.5617 81.1289 77.832 83.8406 65.865L84.2578 64.024C84.6706 62.2021 83.5705 60.3795 81.7662 59.8959L78.7206 59.0796L79.816 54.9929L81.66 55.4872C83.4532 55.9679 85.3079 54.9553 85.8733 53.187L86.4433 51.4042C87.1098 49.3198 88.3138 44.8939 88.5494 40.5659L88.5505 40.546L88.5514 40.5261C88.6999 37.3722 88.3607 33.9181 86.8984 30.8608C85.3381 27.5989 82.5816 25.0082 78.5948 23.9396Z" fill="#08C3B1" stroke="black" stroke-width="0.745297" stroke-miterlimit="10"/>
<path d="M72.223 62.779C67.5974 82.955 62.2109 93.9304 59.2001 93.1234C56.5543 92.4142 56.4226 81.231 61.7536 61.3419C62.0226 60.3383 62.2916 59.3347 62.5361 58.4224C66.7329 59.5473 67.9129 59.9427 69.1658 60.3763L70.4618 55.5409C69.1601 55.2897 68.0469 55.01 63.9413 53.9096C64.3015 52.9305 64.5705 51.9269 64.9063 51.039C68.9206 52.115 70.0367 52.5206 71.1983 52.9297L72.4944 48.0943C71.2839 47.8676 70.417 47.6266 66.5852 46.5995C70.3079 37.8185 73.6224 34.2086 75.2646 34.6488C75.8718 34.6614 77.198 35.2209 76.8293 38.0557C76.5584 40.5256 75.9339 43.5853 75.1269 46.596L80.8747 48.1366C81.4795 46.2452 82.531 42.3221 82.7304 38.6595C82.9805 33.3482 81.4809 30.4519 76.8052 28.901C71.1487 27.3849 65.2335 33.0358 60.1743 44.979C58.2829 44.3742 56.7319 43.9585 56.002 43.7629L54.7549 48.4158C55.3935 48.587 56.7865 48.8626 58.5199 49.3272C58.1841 50.2151 57.8239 51.1942 57.4392 52.2646C55.9127 51.7576 54.6354 51.4153 53.9968 51.2441L52.7496 55.897C53.297 56.0438 54.5988 56.2949 56.0585 56.6862C55.814 57.5985 55.545 58.6021 55.276 59.6057C49.4804 81.2282 49.7955 96.4699 58.0978 98.6953C65.8527 100.774 72.8053 87.9691 78.1532 64.3685L72.223 62.779Z" fill="#08C3B1" stroke="black" stroke-width="0.745297" stroke-miterlimit="10"/>
<path fill-rule="evenodd" clip-rule="evenodd" d="M22.8822 11.6631C22.718 9.97458 23.7961 8.41394 25.4335 7.96983L36.2516 5.03558C38.4751 4.43247 40.66 6.11882 40.6399 8.42264L40.6156 11.2234C40.5455 19.268 40.6219 26.8023 40.7283 33.4789L41.3762 33.1888C43.2682 32.3418 45.4764 33.3273 46.1093 35.3013L52.441 55.0481C53.0693 57.0076 51.8684 59.0811 49.8562 59.5113L47.562 60.0018C47.5613 60.0019 47.557 60.0028 47.5491 60.0047C47.5399 60.0068 47.5267 60.0099 47.5095 60.0141C47.4744 60.0226 47.4276 60.0344 47.3678 60.0501C47.2468 60.0819 47.0923 60.1244 46.9013 60.1792C46.8517 60.1934 46.8005 60.2082 46.7477 60.2236C49.9738 70.2065 53.2631 80.1876 54.464 83.6596L55.174 85.7122C55.812 87.5568 54.8076 89.5651 52.949 90.1611L42.1845 93.6126C40.295 94.2185 38.2823 93.1232 37.7648 91.2076L37.1849 89.0604C36.2681 85.6661 33.0877 75.6624 29.8634 65.593C29.8416 65.6009 29.8203 65.6087 29.7994 65.6163C29.5604 65.7039 29.4543 65.7505 29.4382 65.757L27.239 66.9304C25.3246 67.9519 22.9524 66.9901 22.2898 64.9238L15.9174 45.05C15.2962 43.1124 16.4636 41.0576 18.4462 40.5994L19.4243 40.3733C15.1898 34.2732 10.3724 27.3873 6.6036 22.0463L5.0101 19.788C3.69245 17.9207 4.50317 15.3117 6.64708 14.52L17.3965 10.5506C18.979 9.96624 20.7527 10.6018 21.604 12.0582L22.5024 13.5951C22.7158 13.9602 22.9416 14.3442 23.1783 14.7449C23.1372 14.2983 23.0963 13.8656 23.0557 13.4482L22.8822 11.6631Z" fill="black" stroke="black" stroke-width="0.745297" stroke-miterlimit="10"/>
<path fill-rule="evenodd" clip-rule="evenodd" d="M21.485 10.2557C21.3208 8.56711 22.3989 7.00647 24.0362 6.56236L34.8543 3.62811C37.0779 3.025 39.2628 4.71135 39.2427 7.01517L39.2183 9.81592C39.1483 17.8606 39.2247 25.3948 39.3311 32.0714L39.9789 31.7814C41.8709 30.9343 44.0792 31.9199 44.7121 33.8938L51.0438 53.6407C51.6721 55.6001 50.4712 57.6736 48.459 58.1038L46.1648 58.5943C46.1641 58.5945 46.1598 58.5954 46.1519 58.5972C46.1426 58.5993 46.1295 58.6024 46.1123 58.6066C46.0772 58.6151 46.0304 58.6269 45.9706 58.6426C45.8496 58.6744 45.695 58.717 45.5041 58.7717C45.4545 58.7859 45.4033 58.8007 45.3505 58.8161C48.5766 68.7991 51.8659 78.7801 53.0668 82.2521L53.7768 84.3047C54.4148 86.1493 53.4103 88.1576 51.5517 88.7536L40.7873 92.2051C38.8978 92.811 36.8851 91.7158 36.3676 89.8001L35.7877 87.6529C34.8709 84.2586 31.6905 74.2549 28.4662 64.1856C28.4444 64.1934 28.423 64.2012 28.4021 64.2089C28.1632 64.2964 28.0571 64.343 28.041 64.3495L25.8418 65.5229C23.9273 66.5444 21.5551 65.5826 20.8926 63.5163L14.5202 43.6426C13.8989 41.7049 15.0664 39.6501 17.0489 39.1919L18.0271 38.9658C13.7926 32.8657 8.97518 25.9798 5.20639 20.6388L3.61288 18.3805C2.29523 16.5132 3.10595 13.9042 5.24986 13.1126L15.9993 9.14315C17.5818 8.55877 19.3555 9.1943 20.2068 10.6507L21.1052 12.1877C21.3186 12.5527 21.5444 12.9368 21.7811 13.3375C21.74 12.8909 21.6991 12.4581 21.6585 12.0407L21.485 10.2557Z" fill="#FFCD12" stroke="black" stroke-width="0.745297" stroke-miterlimit="10"/>
<path d="M27.1142 11.6051C27.709 17.7228 28.4167 27.7996 29.1192 35.5649L28.4518 35.7789C24.6643 29.213 19.411 20.6989 16.1503 15.1206L9.66373 17.5159C14.8668 24.8896 22.0627 35.1991 26.9834 42.3479C24.0279 43.2955 21.6139 43.9644 20.4392 44.2359L22.3651 50.2422C23.448 49.6847 25.9574 48.9853 28.9129 48.0376C29.375 49.1511 29.7419 50.2951 30.1393 51.5345C27.0885 52.5128 24.6097 53.3076 23.4045 53.4837L25.3304 59.49C26.3179 58.9631 28.9226 58.233 31.9734 57.2548C35.6723 68.7907 39.9521 82.1381 41.0759 86.2987L47.6542 84.1894C46.2138 80.0251 41.8693 66.8037 38.1704 55.2678C41.2212 54.2896 43.8907 53.4336 44.8747 53.2233L42.9488 47.217C42.026 47.618 39.3565 48.474 36.3363 49.5475C35.9389 48.3081 35.572 47.1641 35.2052 46.02C38.256 45.0418 40.9255 44.1859 41.9094 43.9755L39.9835 37.9692C39.1561 38.3397 36.5819 39.165 33.7524 40.1775C33.5949 31.8168 33.3981 21.3659 33.4982 9.87352L27.1142 11.6051Z" fill="#FFCD12" stroke="black" stroke-width="0.745297" stroke-miterlimit="10"/>
</svg>
