<svg width="80" height="73" viewBox="0 0 80 73" fill="none" xmlns="http://www.w3.org/2000/svg">
<path d="M0 44.3942L28.1641 0.000244141L79.3839 14.5643L61.8332 42.2214L61.2535 41.7951C63.2881 38.552 64.1427 35.064 63.4015 31.8496L61.0528 22.1743C59.2812 14.4867 49.064 11.2764 38.2282 15.0138C27.3924 18.7511 20.0546 27.9852 21.8262 35.6728L24.1721 45.3474C25.0897 49.3259 28.2721 52.1047 32.6344 53.3451L32.5462 53.6553L0 44.3942Z" fill="#FF90E8"/>
<path d="M24.2529 40.1941C23.8267 41.9029 23.7986 43.6771 24.1715 45.3469L21.8256 35.6723C20.054 27.9847 27.3989 18.7359 38.2276 15.0133C49.0562 11.2906 59.2762 14.5017 61.0522 22.1738L63.4009 31.8491C62.9908 30.1188 62.1633 28.569 61.0033 27.3592C56.9907 23.0638 48.9699 21.7888 40.5917 24.6762C32.0947 27.6036 25.7544 33.9065 24.2529 40.1941Z" fill="#FF90E8"/>
<path d="M24.2546 40.1942C25.7425 33.9128 32.0964 27.6037 40.578 24.6887C48.9672 21.8044 56.988 23.0794 60.9896 27.3717L60.9416 27.4251C59.3986 33.6908 53.077 39.9387 44.6283 42.8429C36.2793 45.7219 28.2788 44.4594 24.2546 40.1942Z" fill="#FF90E8"/>
<path d="M32.5449 53.6478L32.6331 53.3377C36.692 54.4918 41.7745 54.3112 46.9975 52.5144C53.2981 50.347 58.4198 46.3157 61.2498 41.8171L61.8294 42.2434L51.2205 58.9649L32.5449 53.6478Z" fill="#FF90E8"/>
<path d="M44.6454 42.8487C53.0877 39.946 59.412 33.6888 60.9588 27.4308L61.0067 27.3774C62.1667 28.5872 62.9943 30.137 63.4043 31.8673C64.142 35.0941 63.2881 38.569 61.2563 41.8128C58.4229 46.3238 53.3011 50.3551 47.004 52.5101C41.7811 54.3068 36.6985 54.4874 32.6397 53.3333C28.2828 52.0945 25.1005 49.3157 24.1774 45.3356C23.8045 43.6658 23.8325 41.8916 24.2587 40.1829C28.2794 44.4605 36.2799 45.723 44.6454 42.8487Z" fill="#FF90E8"/>
<path d="M71.1262 65.3121C70.7679 65.6904 70.3224 65.9497 69.8461 66.057C69.3697 66.1644 68.8839 66.115 68.4501 65.9152C68.0162 65.7154 67.6537 65.3741 67.4085 64.9344C67.1633 64.4947 67.0463 63.9764 67.0724 63.445C67.0984 62.9137 67.2663 62.393 67.5549 61.949C67.8434 61.505 68.2397 61.1574 68.6935 60.9503C69.1473 60.7432 69.6383 60.6858 70.1045 60.7855C70.5707 60.8851 70.9911 61.1372 71.3126 61.51C71.5265 61.7575 71.6915 62.0523 71.7979 62.3775C71.9044 62.7027 71.9503 63.052 71.933 63.4052C71.9157 63.7584 71.8355 64.1087 71.697 64.4359C71.5586 64.7631 71.3646 65.0609 71.1262 65.3121Z" fill="#FF90E8"/>
<path d="M71.1266 65.3123C71.4846 64.9336 71.7393 64.4528 71.8584 63.9309C71.9775 63.4089 71.9558 62.8691 71.7959 62.3797C71.636 61.8903 71.3451 61.4733 70.9601 61.1815C70.575 60.8896 70.1131 60.7359 69.6326 60.7398C69.1522 60.7438 68.6748 60.9051 68.2608 61.2036C67.8468 61.502 67.5148 61.9241 67.3068 62.4165C67.0988 62.9089 67.024 63.4495 67.0921 63.9699C67.1601 64.4904 67.3678 64.9673 67.6889 65.3404C67.9023 65.5884 68.1606 65.7843 68.4489 65.9171C68.7372 66.0499 69.0499 66.1169 69.3691 66.1143C69.6884 66.1117 70.008 66.0395 70.3095 65.9019C70.6111 65.7643 70.8887 65.5639 71.1266 65.3123Z" stroke="black" stroke-width="2" stroke-linecap="round" stroke-linejoin="round"/>
<path d="M62.2339 67.2335C65.993 68.1516 68.0674 66.006 68.1952 65.8713C68.1221 66.055 66.562 69.8319 63.0046 70.711" stroke="black" stroke-width="2" stroke-linecap="round" stroke-linejoin="round"/>
<path d="M68.1901 65.8621C68.1901 65.8621 68.5267 70.8353 65.6594 73.0001" stroke="black" stroke-width="2" stroke-linecap="round" stroke-linejoin="round"/>
<path d="M60.9535 27.4288C59.4105 33.6945 53.0888 39.9424 44.6402 42.8466C36.2746 45.7209 28.2741 44.4584 24.25 40.1932L24.2268 40.1698" stroke="black" stroke-width="2" stroke-linecap="round" stroke-linejoin="round"/>
<path d="M63.3989 31.8648L61.0502 22.1895C59.2786 14.5019 49.0613 11.2916 38.2256 15.029C27.3898 18.7663 20.052 28.0004 21.8236 35.688L24.1695 45.3625" stroke="black" stroke-width="2" stroke-linecap="round" stroke-linejoin="round"/>
<path d="M24.2539 40.1952C25.7417 33.9138 32.0957 27.6047 40.5772 24.6896C48.9665 21.8054 56.9873 23.0804 60.9888 27.3726C62.1488 28.5825 62.9764 30.1322 63.3864 31.8625C64.1241 35.0893 63.2702 38.5642 61.2384 41.808C58.405 46.319 53.2832 50.3503 46.9861 52.5053C41.7632 54.302 36.6806 54.4826 32.6218 53.3285C28.2649 52.0897 25.0826 49.3109 24.1595 45.3308C23.7937 43.665 23.8262 41.8972 24.2539 40.1952Z" stroke="black" stroke-width="2" stroke-linecap="round" stroke-linejoin="round"/>
<path d="M64.9426 38.0247C64.9426 38.0247 78.3501 42.1085 70.9419 60.4742" stroke="black" stroke-width="2" stroke-linecap="round" stroke-linejoin="round"/>
<path d="M32.5437 53.6473L0.0012207 44.394L28.1653 0L79.3851 14.5641L61.83 42.2366L50.9929 58.9272L32.5437 53.6473Z" stroke="black" stroke-width="2" stroke-linecap="round" stroke-linejoin="round"/>
</svg>
