<svg width="123" height="117" viewBox="0 0 123 117" fill="none" xmlns="http://www.w3.org/2000/svg">
<path d="M44.2473 11.3217C54.9206 5.5508 69.8681 9.32831 82.8436 22.6406C100.912 41.1789 108.414 71.3063 99.5758 89.7985C97.3455 94.4578 94.2863 97.9392 90.6646 100.255L80.2714 105.965C83.8072 103.659 86.7991 100.219 88.9875 95.6435C97.8367 77.1531 90.3342 47.0257 72.2553 28.4856C59.4462 15.3434 44.7211 11.4833 34.0715 16.9471L44.2473 11.3217Z" fill="#FF90E8"/>
<path d="M80.256 105.946C69.5183 112.956 53.7562 109.47 40.155 95.5271C22.0856 76.9852 14.5821 46.8602 23.4228 28.3691C25.7865 23.4262 29.0842 19.8109 32.9946 17.5169L34.0212 16.9483L34.0586 16.9293C44.7039 11.4754 59.4332 15.3257 72.2423 28.4678C90.3103 47.0062 97.8139 77.1312 88.9745 95.6258C86.8059 100.21 83.8016 103.645 80.256 105.946Z" fill="#FF90E8"/>
<path d="M90.6589 100.24C94.2765 97.9344 97.3357 94.453 99.5702 89.7839C108.418 71.2959 100.917 41.166 82.838 22.6259C69.8624 9.3137 54.915 5.5362 44.2417 11.3071L32.9247 17.5091" stroke="black" stroke-width="1.5" stroke-miterlimit="10"/>
<path d="M34.0383 16.9561C33.6906 17.1336 33.3461 17.3241 33.0117 17.5247C29.1063 19.8208 25.8036 23.434 23.4399 28.377" stroke="black" stroke-width="1.5" stroke-miterlimit="10"/>
<path d="M23.4402 28.3765C14.5921 46.8645 22.0935 76.9944 40.1725 95.5345C53.7673 109.493 69.5357 112.963 80.2734 105.953C83.8091 103.648 86.8011 100.207 88.9895 95.6321C97.8387 77.1417 90.3362 47.0142 72.2572 28.4742C59.4481 15.332 44.723 11.4719 34.0735 16.9357" stroke="black" stroke-width="1.5" stroke-miterlimit="10"/>
<path d="M90.6765 100.268L90.7874 100.208" stroke="black" stroke-width="1.5" stroke-miterlimit="10"/>
<path d="M77.5371 107.451L80.266 105.951L90.6592 100.241" stroke="black" stroke-width="1.5" stroke-miterlimit="10"/>
<path d="M56.4721 85.2996C55.0668 68.3763 53.6903 51.782 52.3428 35.5166C53.3732 35.6958 55.9812 36.1775 56.9926 36.342C58.399 52.5312 59.8271 69.0863 61.2768 86.0073C60.2042 85.8746 57.5446 85.4322 56.4721 85.2996ZM61.214 52.9656C60.9766 51.5711 60.2962 50.419 59.2363 49.5216C58.1795 48.6083 56.7467 48.0163 54.9188 47.7581C53.7033 47.5702 52.7107 47.5901 51.9313 47.7833C51.1519 47.9764 50.573 48.3237 50.2135 48.8125C49.854 49.3013 49.6853 49.9096 49.7422 50.6277C49.7446 51.2036 49.9023 51.744 50.1835 52.2428C50.4837 52.7288 50.9042 53.1891 51.4325 53.6046C51.9766 54.0231 52.6093 54.4097 53.3466 54.7674C54.0681 55.1219 54.8909 55.4634 55.7897 55.7539C56.9289 56.1626 58.0798 56.5681 59.2423 56.9704C61.2051 57.633 62.9716 58.3724 64.4976 59.2457C66.0774 60.0966 67.4071 61.0467 68.5153 62.1179C69.6425 63.1764 70.5292 64.3688 71.1882 65.7141C71.8313 67.0562 72.2498 68.5354 72.4217 70.1801C72.6642 72.8086 72.2516 74.9969 71.1459 76.7704C70.078 78.5184 68.3833 79.7659 66.1156 80.4906C63.835 81.1963 61.0542 81.344 57.7224 80.9402C54.3778 80.5175 51.4024 79.6408 48.8468 78.3035C46.2785 76.9472 44.2156 75.1142 42.69 72.8107C41.1484 70.504 40.2455 67.7137 39.9718 64.4872C43.0418 64.9659 46.1096 65.4277 49.1751 65.8726C49.3615 67.1914 49.7817 68.3256 50.4645 69.2974C51.1376 70.2344 52.0195 71.0312 53.1225 71.6247C54.2445 72.2054 55.4893 72.5799 56.9205 72.7606C58.1898 72.9262 59.29 72.8614 60.1612 72.6205C61.0672 72.3699 61.7093 71.9526 62.1381 71.3623C62.5797 70.7909 62.7671 70.0876 62.7129 69.2714C62.6146 68.5124 62.3358 67.8332 61.8448 67.2277C61.3349 66.635 60.6031 66.0811 59.6305 65.5789C58.6769 65.0639 57.4441 64.5438 55.9799 64.0278C54.5759 63.5126 53.1709 63.0027 51.7648 62.4981C48.2929 61.2121 45.4979 59.4992 43.4023 57.4132C41.3128 55.2955 40.1856 52.7245 39.9889 49.6939C39.8423 47.2485 40.357 45.2116 41.5618 43.6054C42.719 41.99 44.4334 40.8942 46.6349 40.2553C48.8175 39.6292 51.3702 39.552 54.2773 40.0208C57.2321 40.499 59.8587 41.3898 62.1351 42.7219C64.4367 44.0097 66.2829 45.6031 67.6864 47.5212C69.0931 49.4234 69.9456 51.5462 70.241 53.9056C67.2205 53.6229 64.2115 53.3095 61.214 52.9656Z" fill="black"/>
</svg>
