<svg width="147" height="139" viewBox="0 0 147 139" fill="none" xmlns="http://www.w3.org/2000/svg">
<path d="M128.698 18.8345C130.044 18.5899 131.432 18.7503 132.687 19.2954C133.943 19.8405 135.008 20.7459 135.75 21.8971C136.492 23.0483 136.876 24.3936 136.854 25.763C136.832 27.1324 136.405 28.4644 135.627 29.5906C134.849 30.7168 133.755 31.5866 132.483 32.0902C131.211 32.5937 129.818 32.7083 128.48 32.4195C127.143 32.1307 125.921 31.4514 124.969 30.4676C124.017 29.4838 123.377 28.2396 123.131 26.8922C122.967 25.9969 122.98 25.078 123.171 24.1881C123.362 23.2982 123.727 22.4549 124.244 21.7064C124.761 20.9579 125.421 20.3189 126.185 19.8261C126.949 19.3333 127.803 18.9964 128.698 18.8345Z" fill="#FF90E8"/>
<path d="M147 137.958L94.4125 128.865L94.3621 128.82L104.462 117.654C109.593 111.522 99.5815 94.6741 82.1037 80.0154C64.6258 65.3567 46.2992 58.4395 41.1679 64.5712L27.3447 79.7846L0.0227051 41.1362L89.4772 56.6118L147 137.958Z" fill="#FF90E8"/>
<path d="M27.3449 79.7847L41.1374 64.5346C46.2687 58.4029 64.5953 65.3201 82.0732 79.9788C99.551 94.6375 109.563 111.486 104.431 117.617L87.4887 136.353L87.4404 136.319C92.0174 129.956 82.0471 113.402 64.8466 98.977C47.3688 84.3183 29.0374 77.408 23.9119 83.5387L27.3449 79.7847Z" fill="#FF90E8"/>
<path d="M64.8454 99.0076C82.0459 113.433 92.0162 129.987 87.4393 136.35L87.2045 136.652C82.0731 142.784 63.7476 135.873 46.2697 121.214C28.7918 106.555 18.7793 89.701 23.9107 83.5693C29.042 77.4376 47.3665 84.343 64.8454 99.0076Z" fill="#FF90E8"/>
<path d="M27.5966 80.1747L27.322 79.7898L0 41.1414L89.4719 56.6138L146.968 137.946L94.3807 128.853" stroke="black" stroke-width="1.49612" stroke-linecap="round" stroke-linejoin="round"/>
<path d="M136.717 24.4345C136.96 25.7813 136.8 27.1701 136.255 28.4251C135.71 29.6802 134.806 30.7452 133.656 31.4854C132.506 32.2256 131.163 32.6079 129.796 32.5838C128.429 32.5597 127.1 32.1303 125.977 31.35C124.853 30.5697 123.986 29.4735 123.484 28.1999C122.983 26.9264 122.87 25.5328 123.16 24.1954C123.449 22.8579 124.129 21.6367 125.112 20.6861C126.095 19.7355 127.338 19.0982 128.683 18.8549C130.487 18.5286 132.347 18.9331 133.854 19.9795C135.36 21.0259 136.39 22.6284 136.717 24.4345Z" stroke="black" stroke-width="1.49612" stroke-linecap="round" stroke-linejoin="round"/>
<path d="M100.365 72.5138L100.581 72.4247C103.09 71.3889 126.667 60.9064 130.468 32.9053" stroke="black" stroke-width="1.49612" stroke-linecap="round" stroke-linejoin="round"/>
<path d="M130.738 18.5849C130.814 18.2694 133.259 7.95133 126.235 0.354004" stroke="black" stroke-width="1.49612" stroke-linecap="round" stroke-linejoin="round"/>
<path d="M118.942 6.17114C129.549 10.5066 130.757 18.5884 130.757 18.5884" stroke="black" stroke-width="1.49612" stroke-linecap="round" stroke-linejoin="round"/>
<path d="M130.734 18.5912C130.981 18.3232 139.376 8.90273 136.132 5.72681e-08" stroke="black" stroke-width="1.49612" stroke-linecap="round" stroke-linejoin="round"/>
<path d="M41.0955 64.6274C46.2268 58.4957 64.5534 65.4128 82.0313 80.0715C99.5091 94.7302 109.521 111.579 104.389 117.71" stroke="black" stroke-width="1.49612" stroke-linecap="round" stroke-linejoin="round"/>
<path d="M87.4392 136.344L87.2045 136.646C82.0731 142.778 63.7476 135.867 46.2697 121.208C28.7918 106.549 18.7793 89.6953 23.9107 83.5636C29.042 77.4319 47.3675 84.3432 64.8454 99.0019C82.0416 113.404 92.0162 129.981 87.4392 136.344Z" stroke="black" stroke-width="1.49612" stroke-linecap="round" stroke-linejoin="round"/>
<path d="M23.9106 83.5636L41.1144 64.5393" stroke="black" stroke-width="1.49612" stroke-linecap="round" stroke-linejoin="round"/>
<path d="M87.4868 136.377L104.691 117.353" stroke="black" stroke-width="1.49612" stroke-linecap="round" stroke-linejoin="round"/>
<path d="M33.9341 81.8015C38.2351 91.5955 55.0018 114.622 87.66 128.378" stroke="black" stroke-width="1.49612"/>
</svg>
