<svg width="77" height="74" viewBox="0 0 77 74" fill="none" xmlns="http://www.w3.org/2000/svg">
<path d="M60.5821 18.7682C60.5821 18.7682 71.1047 11.7022 74.2041 11.7646C77.3035 11.8269 76.7568 24.6718 68.1901 30.403C59.6234 36.1343 55.6116 25.3685 55.6116 25.3685L60.5821 18.7682Z" fill="#23A094" stroke="black" stroke-width="2" stroke-miterlimit="10" stroke-linecap="round" stroke-linejoin="round"/>
<path d="M15.8454 29.9447C15.8454 29.9447 10.8225 29.2358 7.00615 26.0362C3.18982 22.8403 -1.55407 12.4499 0.493618 11.9173C2.54131 11.3846 14.1711 12.0073 21.3321 17.6001C28.4932 23.1929 15.8454 29.9447 15.8454 29.9447Z" fill="#23A094" stroke="black" stroke-width="1.5" stroke-miterlimit="10" stroke-linecap="round" stroke-linejoin="round"/>
<path d="M56.6806 65.2359C67.9027 65.2359 77 56.1385 77 44.9164C77 33.6943 67.9027 24.5969 56.6806 24.5969C45.4584 24.5969 36.3611 33.6943 36.3611 44.9164C36.3611 56.1385 45.4584 65.2359 56.6806 65.2359Z" fill="#FFD000" stroke="black" stroke-width="1.5" stroke-miterlimit="10" stroke-linecap="round" stroke-linejoin="round"/>
<path d="M35.3244 59.4412C35.3244 59.4412 42.3886 71.8054 50.6163 73.7918C50.6163 73.7918 54.4582 60.9929 44.3568 50.2376C34.2553 39.4823 35.3244 59.4412 35.3244 59.4412Z" fill="#23A094" stroke="black" stroke-width="1.5" stroke-miterlimit="10" stroke-linecap="round" stroke-linejoin="round"/>
<path d="M26.2014 65.236C37.7188 65.236 47.0555 55.8992 47.0555 44.3818C47.0555 32.8643 37.7188 23.5276 26.2014 23.5276C14.6839 23.5276 5.34717 32.8643 5.34717 44.3818C5.34717 55.8992 14.6839 65.236 26.2014 65.236Z" fill="#FFD000" stroke="black" stroke-width="1.5" stroke-miterlimit="10" stroke-linecap="round" stroke-linejoin="round"/>
<path d="M39.5699 40.6389C50.7921 40.6389 59.8894 31.5416 59.8894 20.3195C59.8894 9.09734 50.7921 0 39.5699 0C28.3478 0 19.2505 9.09734 19.2505 20.3195C19.2505 31.5416 28.3478 40.6389 39.5699 40.6389Z" fill="#FFD000" stroke="black" stroke-width="1.5" stroke-miterlimit="10" stroke-linecap="round" stroke-linejoin="round"/>
</svg>
