<svg width="66" height="64" viewBox="0 0 66 64" fill="none" xmlns="http://www.w3.org/2000/svg">
<path d="M34.0645 0C41.6312 0 47.8754 5.63979 48.8347 12.9447C49.5723 12.8324 50.3278 12.7742 51.0968 12.7742C59.3276 12.7742 66 19.4466 66 27.6774C66 33.6496 62.4853 38.7975 57.4132 41.1752C58.8071 43.4427 59.6129 46.1108 59.6129 48.9677C59.6129 57.1986 52.9405 63.871 44.7097 63.871C39.9578 63.871 35.7289 61.6442 33 58.1804C30.2711 61.6442 26.0422 63.871 21.2903 63.871C13.0595 63.871 6.3871 57.1986 6.3871 48.9677C6.3871 46.1112 7.19115 43.4425 8.58474 41.1752C3.51349 38.7971 0 33.6489 0 27.6774C0 19.4466 6.6724 12.7742 14.9032 12.7742C16.4096 12.7742 17.8634 12.9989 19.2341 13.4146C19.981 5.88266 26.3361 0 34.0645 0Z" fill="#08C3B1" stroke="black" stroke-width="2.27383" stroke-miterlimit="10"/>
<circle cx="34.0645" cy="31.9358" r="8.51613" fill="#FFD000" stroke="black" stroke-width="2.27383" stroke-miterlimit="10"/>
<path d="M34.0642 11.71V19.1616M22.3545 28.7422L13.8384 26.6132M25.5481 42.5809L20.2255 50.0325M41.5158 42.5809L45.7739 50.0325M46.8384 29.8067L55.3545 26.6132" stroke="black" stroke-width="2.82857"/>
</svg>
