<svg width="35" height="34" viewBox="0 0 35 34" fill="none" xmlns="http://www.w3.org/2000/svg">
<path d="M18.0645 0C22.0772 0 25.3885 2.9908 25.8972 6.8646C26.2884 6.80504 26.689 6.77419 27.0968 6.77419C31.4616 6.77419 35 10.3126 35 14.6774C35 17.8445 33.1362 20.5744 30.4464 21.8353C31.1856 23.0378 31.6129 24.4527 31.6129 25.9677C31.6129 30.3326 28.0745 33.871 23.7097 33.871C21.1897 33.871 18.9472 32.6901 17.5 30.8532C16.0528 32.6901 13.8103 33.871 11.2903 33.871C6.92549 33.871 3.3871 30.3326 3.3871 25.9677C3.3871 24.4529 3.81349 23.0377 4.55251 21.8353C1.86322 20.5742 0 17.8441 0 14.6774C0 10.3126 3.53839 6.77419 7.90323 6.77419C8.70207 6.77419 9.47303 6.89337 10.1999 7.11379C10.596 3.11959 13.9661 0 18.0645 0Z" fill="#08C3B1" stroke="black" stroke-width="1.20582" stroke-miterlimit="10"/>
<circle cx="18.0645" cy="16.9356" r="4.51613" fill="#FFD000" stroke="black" stroke-width="1.20582" stroke-miterlimit="10"/>
<path d="M18.0644 6.20972V10.1613M11.8548 15.242L7.33862 14.1129M13.5483 22.5807L10.7257 26.5323M22.016 22.5807L24.2741 26.5323M24.8386 15.8065L29.3548 14.1129" stroke="black" stroke-width="1.5"/>
</svg>
