<svg width="95" height="109" viewBox="0 0 95 109" fill="none" xmlns="http://www.w3.org/2000/svg">
<path d="M66.9547 20.4305C68.9358 19.599 68.8395 14.879 66.7396 9.88802C64.6396 4.89704 61.3313 1.52509 59.3501 2.35655C57.369 3.18802 57.4653 7.90805 59.5652 12.899C61.6652 17.89 64.9736 21.2619 66.9547 20.4305Z" fill="#08C3B1" stroke="black" stroke-width="1.20582" stroke-miterlimit="10"/>
<path d="M77.8147 11.9C79.7081 6.82728 79.6107 2.10728 77.5971 1.35758C75.5835 0.607893 72.4163 4.1124 70.5228 9.18513C68.6294 14.2579 68.7268 18.9779 70.7404 19.7276C72.754 20.4772 75.9213 16.9727 77.8147 11.9Z" fill="#08C3B1" stroke="black" stroke-width="1.20582" stroke-miterlimit="10"/>
<path d="M85.1983 22.9469C90.0721 19.9301 92.8461 15.5877 91.3942 13.2479C89.9422 10.9081 84.8142 11.457 79.9403 14.4738C75.0665 17.4907 72.2925 21.833 73.7444 24.1728C75.1964 26.5126 80.3244 25.9637 85.1983 22.9469Z" fill="#08C3B1" stroke="black" stroke-width="1.20582" stroke-miterlimit="10"/>
<path d="M92.9928 35.3356C93.9493 32.6159 90.6173 28.9702 85.5505 27.1928C80.4838 25.4154 75.601 26.1792 74.6445 28.899C73.688 31.6187 77.02 35.2644 82.0867 37.0418C87.1535 38.8192 92.0363 38.0553 92.9928 35.3356Z" fill="#08C3B1" stroke="black" stroke-width="1.20582" stroke-miterlimit="10"/>
<path d="M77.9051 45.5416C79.5462 44.8097 79.3437 40.788 77.453 36.5587C75.5622 32.3294 72.6991 29.4942 71.0581 30.226C69.417 30.9578 69.6194 34.9795 71.5102 39.2088C73.4009 43.4381 76.2641 46.2734 77.9051 45.5416Z" fill="#08C3B1" stroke="black" stroke-width="1.20582" stroke-miterlimit="10"/>
<path d="M65.992 43.1414C68.7645 38.0573 69.4821 33.1036 67.5949 32.0771C65.7076 31.0505 61.9302 34.3397 59.1577 39.4238C56.3852 44.5079 55.6676 49.4616 57.5549 50.4882C59.4421 51.5147 63.2196 48.2255 65.992 43.1414Z" fill="#08C3B1" stroke="black" stroke-width="1.20582" stroke-miterlimit="10"/>
<path d="M56.7472 37.5063C61.7817 34.7856 64.8991 30.801 63.7101 28.6065C62.5212 26.412 57.4761 26.8385 52.4416 29.5593C47.4072 32.28 44.2898 36.2646 45.4787 38.4591C46.6677 40.6536 51.7128 40.227 56.7472 37.5063Z" fill="#08C3B1" stroke="black" stroke-width="1.20582" stroke-miterlimit="10"/>
<path d="M63.6676 23.3348C64.4623 20.724 60.7543 17.2859 55.3855 15.6557C50.0166 14.0254 45.02 14.8203 44.2252 17.4311C43.4304 20.0419 47.1385 23.48 52.5073 25.1103C57.8762 26.7405 62.8728 25.9456 63.6676 23.3348Z" fill="#08C3B1" stroke="black" stroke-width="1.20582" stroke-miterlimit="10"/>
<path d="M69.9674 34.3902C74.4003 34.3902 77.9939 30.7504 77.9939 26.2605C77.9939 21.7706 74.4003 18.1309 69.9674 18.1309C65.5345 18.1309 61.9409 21.7706 61.9409 26.2605C61.9409 30.7504 65.5345 34.3902 69.9674 34.3902Z" fill="#FFD000" stroke="black" stroke-width="1.20582" stroke-miterlimit="10"/>
<path d="M24.8395 49.1917C26.9427 49.1917 28.6477 45.3432 28.6477 40.5958C28.6477 35.8485 26.9427 32 24.8395 32C22.7362 32 21.0312 35.8485 21.0312 40.5958C21.0312 45.3432 22.7362 49.1917 24.8395 49.1917Z" fill="#08C3B1" stroke="black" stroke-width="1.20582" stroke-miterlimit="10"/>
<path d="M20.9468 50.3536C22.5038 49.2067 21.3916 45.0618 18.4627 41.0957C15.5338 37.1297 11.8972 34.8444 10.3402 35.9914C8.78321 37.1383 9.89537 41.2832 12.8243 45.2492C15.7532 49.2153 19.3898 51.5006 20.9468 50.3536Z" fill="#08C3B1" stroke="black" stroke-width="1.20582" stroke-miterlimit="10"/>
<path d="M19.6232 54.2876C20.0713 51.8379 16.2233 49.0837 11.0286 48.1359C5.8338 47.1881 1.25938 48.4057 0.811309 50.8554C0.363234 53.3051 4.21119 56.0593 9.40594 57.0071C14.6007 57.9549 19.1751 56.7373 19.6232 54.2876Z" fill="#08C3B1" stroke="black" stroke-width="1.20582" stroke-miterlimit="10"/>
<path d="M15.4384 66.7519C19.3709 63.6223 21.4122 59.6482 19.9978 57.8754C18.5835 56.1027 14.249 57.2026 10.3165 60.3322C6.38397 63.4618 4.34262 67.4359 5.75699 69.2086C7.17136 70.9814 11.5059 69.8815 15.4384 66.7519Z" fill="#08C3B1" stroke="black" stroke-width="1.20582" stroke-miterlimit="10"/>
<path d="M24.1952 70.7022C26.0611 65.995 25.9884 61.5522 24.0328 60.779C22.0772 60.0058 18.9793 63.1949 17.1134 67.9021C15.2475 72.6093 15.3202 77.0521 17.2758 77.8254C19.2314 78.5986 22.3293 75.4095 24.1952 70.7022Z" fill="#08C3B1" stroke="black" stroke-width="1.20582" stroke-miterlimit="10"/>
<path d="M29.7201 77.4564C31.6006 77.3889 32.9805 73.3144 32.8021 68.3556C32.6238 63.3969 30.9547 59.4317 29.0742 59.4992C27.1937 59.5666 25.8138 63.6412 25.9921 68.5999C26.1705 73.5587 27.8395 77.5238 29.7201 77.4564Z" fill="#08C3B1" stroke="black" stroke-width="1.20582" stroke-miterlimit="10"/>
<path d="M48.0936 60.208C48.7333 57.8433 45.5318 54.9226 40.9429 53.6845C36.354 52.4463 32.1154 53.3596 31.4758 55.7244C30.8361 58.0891 34.0377 61.0098 38.6266 62.2479C43.2155 63.486 47.454 62.5727 48.0936 60.208Z" fill="#08C3B1" stroke="black" stroke-width="1.20582" stroke-miterlimit="10"/>
<path d="M38.9152 53.0034C43.088 52.8537 46.4186 51.2839 46.3544 49.4971C46.2901 47.7103 42.8553 46.3832 38.6825 46.5329C34.5097 46.6826 31.1791 48.2524 31.2433 50.0392C31.3076 51.826 34.7424 53.1531 38.9152 53.0034Z" fill="#08C3B1" stroke="black" stroke-width="1.20582" stroke-miterlimit="10"/>
<path d="M34.7512 45.3884C37.0014 42.4391 37.8205 39.2833 36.5807 38.3397C35.3408 37.3961 32.5116 39.0221 30.2614 41.9714C28.0112 44.9207 27.1921 48.0764 28.4319 49.02C29.6718 49.9636 32.501 48.3377 34.7512 45.3884Z" fill="#08C3B1" stroke="black" stroke-width="1.20582" stroke-miterlimit="10"/>
<path d="M25.7555 63.2506C30.1161 63.2506 33.6511 59.7201 33.6511 55.3649C33.6511 51.0098 30.1161 47.4792 25.7555 47.4792C21.3948 47.4792 17.8599 51.0098 17.8599 55.3649C17.8599 59.7201 21.3948 63.2506 25.7555 63.2506Z" fill="#FFD000" stroke="black" stroke-width="1.20582" stroke-miterlimit="10"/>
<path d="M69.7666 34.6045V108.791" stroke="black" stroke-width="1.20582" stroke-miterlimit="10"/>
<path d="M31.4089 60.8684C48.9931 75.189 56.3391 101.425 56.3391 101.425" stroke="black" stroke-width="1.20582" stroke-miterlimit="10"/>
</svg>
