<svg width="69" height="73" viewBox="0 0 69 73" fill="none" xmlns="http://www.w3.org/2000/svg">
<path d="M52.6947 65.6699L44.8644 70.395C41.8286 71.8144 38.5702 72.6257 35.2546 72.7877C18.5975 73.6668 2.94584 59.0171 0.363628 40.1335C-1.33412 27.7088 3.03304 16.5154 10.9576 10.047L10.9469 10.0282L20.0674 4.12085L20.0852 4.15286C10.7583 10.2391 5.39278 22.3399 7.24535 35.8827C9.82755 54.7682 25.4792 69.4161 42.1363 68.537C45.8046 68.3589 49.3989 67.3829 52.6947 65.6699Z" fill="#FF90E8"/>
<path d="M67.6612 32.6954C69.4764 45.9709 64.3565 57.8609 55.3695 64.0563L52.7001 65.6678C49.4043 67.3808 45.81 68.3568 42.1417 68.5348C25.4846 69.414 9.83297 54.7661 7.25077 35.8806C5.3982 22.3378 10.7637 10.2369 20.0906 4.15073C23.9212 1.66468 28.2861 0.249276 32.7757 0.0374313C49.4274 -0.839823 65.079 13.8099 67.6612 32.6954Z" fill="#FF90E8"/>
<path d="M52.6946 65.6698L55.364 64.0583C54.5055 64.6515 53.6141 65.1897 52.6946 65.6698Z" fill="#FF90E8"/>
<path d="M55.3695 64.0563C64.3565 57.8609 69.4764 45.9709 67.6612 32.6954C65.079 13.8099 49.4274 -0.83984 32.7703 0.0392971" stroke="black" stroke-miterlimit="10"/>
<path d="M32.7703 0.0397949C28.2808 0.25164 23.9158 1.66704 20.0853 4.1531C10.7584 10.2393 5.39283 22.3401 7.2454 35.883C9.8276 54.7684 25.4792 69.4163 42.1363 68.5372C45.8047 68.3591 49.3989 67.3831 52.6948 65.6701C53.6143 65.19 54.5057 64.6519 55.3642 64.0587" stroke="black" stroke-miterlimit="10"/>
<path d="M10.8652 10.0805L10.9453 10.0278L20.0658 4.12047L21.3667 3.2771" stroke="black" stroke-miterlimit="10"/>
<path d="M10.9576 10.0471C3.03304 16.5155 -1.33412 27.7184 0.363628 40.1336C2.94584 59.0171 18.5975 73.6669 35.2546 72.7878C38.5702 72.6258 41.8286 71.8145 44.8644 70.3951L52.6947 65.67L55.3641 64.0585L55.5421 63.9493" stroke="black" stroke-miterlimit="10"/>
<path d="M33.6208 54.4711C36.0426 39.2814 38.4187 24.3875 40.7492 9.78925C41.6419 10.2542 43.895 11.4556 44.7736 11.902C42.513 26.4514 40.1921 41.3266 37.8109 56.5275C36.87 56.0906 34.5617 54.908 33.6208 54.4711ZM44.9636 27.6735C45.0533 26.3854 44.6894 25.1762 43.9268 24.0757C43.1705 22.9622 42.004 22.0164 40.4075 21.2438C39.3494 20.7158 38.4475 20.4359 37.7006 20.3711C36.9538 20.3062 36.3545 20.4359 35.9227 20.7549C35.491 21.0738 35.2057 21.5541 35.1005 22.1978C34.9771 22.7011 35.0017 23.22 35.1472 23.7395C35.3125 24.2535 35.5924 24.7811 35.9794 25.3019C36.3801 25.8301 36.8679 26.357 37.4565 26.8899C38.0315 27.4153 38.7011 27.9598 39.4504 28.4824C40.3914 29.1803 41.3435 29.8788 42.3069 30.578C43.9372 31.744 45.3732 32.9183 46.5625 34.1374C47.8054 35.3531 48.8004 36.5804 49.5688 37.8472C50.3571 39.1085 50.8987 40.4146 51.201 41.7859C51.4897 43.1498 51.5454 44.566 51.3419 46.0528C50.9877 48.4194 50.1372 50.2055 48.7503 51.4221C47.4034 52.6278 45.5988 53.209 43.3901 53.1622C41.1739 53.0951 38.6272 52.3913 35.7025 51.0411C32.7704 49.6707 30.2713 48.0145 28.2522 46.0822C26.2258 44.1295 24.7604 41.912 23.8835 39.4448C22.9928 36.9702 22.7852 34.2647 23.2418 31.367C25.9133 32.7041 28.5865 34.0258 31.2614 35.3322C31.1422 36.5388 31.2747 37.6545 31.6801 38.707C32.0843 39.7263 32.7078 40.6858 33.5758 41.534C34.4636 42.3768 35.5075 43.0764 36.7621 43.6627C37.8738 44.1873 38.8828 44.4603 39.7231 44.5109C40.597 44.5635 41.2686 44.3917 41.7852 44.0049C42.3092 43.6385 42.6321 43.0809 42.7612 42.3524C42.8379 41.6605 42.734 40.9843 42.4222 40.3089C42.0904 39.6389 41.5495 38.9364 40.7797 38.2068C40.0297 37.4719 39.0285 36.6488 37.8171 35.76C36.6599 34.89 35.5007 34.0242 34.3394 33.1627C31.4806 31.0007 29.327 28.6689 27.8872 26.2209C26.4599 23.7471 26.0016 21.1658 26.485 18.4621C26.886 16.2841 27.7959 14.6607 29.2357 13.6198C30.6346 12.5565 32.4239 12.1137 34.554 12.2154C36.6642 12.3225 38.9893 13.0197 41.5157 14.2994C44.0832 15.6015 46.2639 17.1655 48.0316 19.0098C49.8318 20.8228 51.1536 22.7663 52.0042 24.8605C52.8611 26.9417 53.1688 29.0497 52.9211 31.1971C50.2515 30.0459 47.599 28.8713 44.9636 27.6735Z" fill="black"/>
</svg>
