<svg width="57" height="56" viewBox="0 0 57 56" fill="none" xmlns="http://www.w3.org/2000/svg">
<path d="M29.4194 0C35.9542 0 41.3469 4.87073 42.1754 11.1795C42.8125 11.0825 43.4649 11.0323 44.129 11.0323C51.2375 11.0323 57 16.7948 57 23.9032C57 29.061 53.9646 33.5069 49.5841 35.5604C50.788 37.5187 51.4839 39.8229 51.4839 42.2903C51.4839 49.3988 45.7213 55.1613 38.6129 55.1613C34.509 55.1613 30.8568 53.2382 28.5 50.2467C26.1432 53.2382 22.491 55.1613 18.3871 55.1613C11.2787 55.1613 5.51613 49.3988 5.51613 42.2903C5.51613 39.8233 6.21054 37.5185 7.41409 35.5604C3.03438 33.5066 0 29.0604 0 23.9032C0 16.7948 5.76253 11.0323 12.871 11.0323C14.1719 11.0323 15.4275 11.2263 16.6112 11.5853C17.2563 5.08048 22.7448 0 29.4194 0Z" fill="#08C3B1" stroke="black" stroke-width="1.96376" stroke-miterlimit="10"/>
<circle cx="29.4193" cy="27.5809" r="7.35484" fill="#FFD000" stroke="black" stroke-width="1.96376" stroke-miterlimit="10"/>
<path d="M29.4192 10.113V16.5485M19.3063 24.8227L11.9514 22.984M22.0643 36.7743L17.4675 43.2098M35.8546 36.7743L39.5321 43.2098M40.4514 25.7421L47.8063 22.984" stroke="black" stroke-width="2.44286"/>
</svg>
